<svg xmlns="http://www.w3.org/2000/svg" version="1.1" x="0" y="0" viewBox="0 0 62.7 41.9" enable-background="new 0 0 62.7 41.9" xml:space="preserve"><path d="M20.4 15c-3.4 0-6.2 2.8-6.2 6.2s2.8 6.2 6.2 6.2 6.2-2.8 6.2-6.2S23.9 15 20.4 15zM20.4 26.5c-2.9 0-5.2-2.4-5.2-5.2 0-2.9 2.4-5.2 5.2-5.2s5.2 2.4 5.2 5.2C25.7 24.1 23.3 26.5 20.4 26.5zM42.4 15c-3.4 0-6.2 2.8-6.2 6.2s2.8 6.2 6.2 6.2 6.2-2.8 6.2-6.2S45.9 15 42.4 15zM42.4 26.5c-2.9 0-5.2-2.4-5.2-5.2 0-2.9 2.4-5.2 5.2-5.2 2.9 0 5.2 2.4 5.2 5.2C47.7 24.1 45.3 26.5 42.4 26.5zM53.4 4.5h-44c-2.6 0-4.7 2.1-4.7 4.7v22.6c0 2.6 2.1 4.7 4.7 4.7h13.4c1.5 0 2.8-0.9 3.5-2.2l3-7.5c0.4-0.8 1.2-1.3 2.1-1.3 0.7 0 1.7 0.4 2.1 1.4l2.6 7.4c0.6 1.4 1.9 2.3 3.5 2.3h13.9c2.6 0 4.7-2.1 4.7-4.7V9.3C58.2 6.6 56 4.5 53.4 4.5zM56.2 31.9c0 1.5-1.2 2.7-2.7 2.7H39.5c-0.7 0-1.3-0.4-1.6-1l-2.6-7.4c-0.7-1.6-2.2-2.7-4-2.7 -1.7 0-3.2 1-3.9 2.5l-3 7.5c-0.3 0.6-0.9 1-1.6 1H9.4c-1.5 0-2.7-1.2-2.7-2.7V9.3c0-1.5 1.2-2.7 2.7-2.7h44c1.5 0 2.7 1.2 2.7 2.7V31.9zM42.4 16.5c-2.6 0-4.7 2.1-4.7 4.7 0 0.3 0.2 0.5 0.5 0.5s0.5-0.2 0.5-0.5c0-2.1 1.7-3.7 3.7-3.7 0.3 0 0.5-0.2 0.5-0.5S42.7 16.5 42.4 16.5zM20.4 16.5c-2.6 0-4.7 2.1-4.7 4.7 0 0.3 0.2 0.5 0.5 0.5s0.5-0.2 0.5-0.5c0-2.1 1.7-3.7 3.7-3.7 0.3 0 0.5-0.2 0.5-0.5S20.7 16.5 20.4 16.5z"/></svg>
